<svg width="128" height="128" viewBox="0 0 128 128" xmlns="http://www.w3.org/2000/svg">
  <defs>
    <!-- Beautiful gradient like the original -->
    <linearGradient id="magicalGrad" x1="0%" y1="0%" x2="100%" y2="100%">
      <stop offset="0%" style="stop-color:#6366f1"/>
      <stop offset="30%" style="stop-color:#7c3aed"/>
      <stop offset="70%" style="stop-color:#8b5cf6"/>
      <stop offset="100%" style="stop-color:#a855f7"/>
    </linearGradient>
    
    <!-- Inner magical glow -->
    <radialGradient id="magicalGlow" cx="40%" cy="25%" r="70%">
      <stop offset="0%" style="stop-color:rgba(255,255,255,0.4)"/>
      <stop offset="60%" style="stop-color:rgba(255,255,255,0.2)"/>
      <stop offset="100%" style="stop-color:rgba(255,255,255,0)"/>
    </radialGradient>
    
    <!-- Liquid gradient -->
    <linearGradient id="magicalLiquid" x1="0%" y1="0%" x2="100%" y2="100%">
      <stop offset="0%" style="stop-color:rgba(255,255,255,0.7)"/>
      <stop offset="100%" style="stop-color:rgba(255,255,255,0.4)"/>
    </linearGradient>
    
    <!-- Magical glow filter -->
    <filter id="magicalFilter">
      <feGaussianBlur stdDeviation="2" result="coloredBlur"/>
      <feMerge> 
        <feMergeNode in="coloredBlur"/>
        <feMergeNode in="SourceGraphic"/>
      </feMerge>
    </filter>
    
    <!-- Sparkle glow -->
    <filter id="sparkleGlow">
      <feGaussianBlur stdDeviation="1" result="coloredBlur"/>
      <feMerge> 
        <feMergeNode in="coloredBlur"/>
        <feMergeNode in="SourceGraphic"/>
      </feMerge>
    </filter>
    
    <!-- Shadow -->
    <filter id="magicalShadow">
      <feDropShadow dx="0" dy="3" stdDeviation="6" flood-color="rgba(0,0,0,0.2)"/>
    </filter>
  </defs>
  
  <!-- Background for store (square format) -->
  <rect width="128" height="128" fill="#1a1a2e"/>
  
  <!-- Main magical circle -->
  <circle cx="64" cy="64" r="56" fill="url(#magicalGrad)" filter="url(#magicalShadow)"/>
  
  <!-- Inner magical glow -->
  <circle cx="64" cy="64" r="54" fill="url(#magicalGlow)"/>
  
  <!-- Highlight ring -->
  <circle cx="64" cy="64" r="50" fill="none" stroke="rgba(255,255,255,0.3)" stroke-width="1"/>
  
  <!-- Beautiful alchemical flask -->
  <g filter="url(#magicalFilter)">
    <path d="M42 28 L86 28 L82 52 L96 88 C97 92 94 96 89 96 L39 96 C34 96 31 92 32 88 L46 52 Z" 
          fill="none" stroke="white" stroke-width="4" stroke-linecap="round" stroke-linejoin="round"/>
  </g>
  
  <!-- Flask neck with detail -->
  <rect x="50" y="20" width="28" height="8" fill="none" stroke="white" stroke-width="4" stroke-linecap="round"/>
  <line x1="42" y1="28" x2="86" y2="28" stroke="white" stroke-width="4" stroke-linecap="round"/>
  
  <!-- Magical liquid inside -->
  <path d="M48 54 L80 54 L90 86 C90.5 88.5 88.5 92 89 92 L39 92 C37.5 92 35.5 88.5 36 86 Z" 
        fill="url(#magicalLiquid)"/>
  
  <!-- Bubbles in the magical brew -->
  <circle cx="58" cy="70" r="2.5" fill="rgba(255,255,255,0.8)"/>
  <circle cx="70" cy="65" r="2" fill="rgba(255,255,255,0.9)"/>
  <circle cx="62" cy="80" r="1.8" fill="rgba(255,255,255,0.7)"/>
  <circle cx="74" cy="76" r="1.3" fill="rgba(255,255,255,0.8)"/>
  <circle cx="66" cy="60" r="1" fill="rgba(255,255,255,0.9)"/>
  
  <!-- Main transformed text -->
  <text x="64" y="77" text-anchor="middle" fill="white" font-family="serif" font-size="20" font-weight="bold" opacity="0.95">𝒜</text>
  
  <!-- Magical sparkles around the flask -->
  <g filter="url(#sparkleGlow)">
    <!-- Large sparkles -->
    <path d="M25 25 L30 30 M30 25 L25 30" stroke="white" stroke-width="2.5" stroke-linecap="round" opacity="0.9"/>
    <path d="M98 30 L103 35 M103 30 L98 35" stroke="white" stroke-width="2.5" stroke-linecap="round" opacity="0.8"/>
    <path d="M20 85 L25 90 M25 85 L20 90" stroke="white" stroke-width="2.5" stroke-linecap="round" opacity="0.7"/>
    <path d="M103 90 L108 95 M108 90 L103 95" stroke="white" stroke-width="2.5" stroke-linecap="round" opacity="0.6"/>
    
    <!-- Medium sparkles -->
    <path d="M35 18 L38 21 M38 18 L35 21" stroke="white" stroke-width="2" stroke-linecap="round" opacity="0.8"/>
    <path d="M90 22 L93 25 M93 22 L90 25" stroke="white" stroke-width="2" stroke-linecap="round" opacity="0.7"/>
    <path d="M18 50 L21 53 M21 50 L18 53" stroke="white" stroke-width="2" stroke-linecap="round" opacity="0.6"/>
    <path d="M107 55 L110 58 M110 55 L107 58" stroke="white" stroke-width="2" stroke-linecap="round" opacity="0.5"/>
    
    <!-- Small magical dots -->
    <circle cx="32" cy="45" r="1.5" fill="white" opacity="0.8"/>
    <circle cx="96" cy="50" r="1.2" fill="white" opacity="0.7"/>
    <circle cx="28" cy="98" r="1.2" fill="white" opacity="0.6"/>
    <circle cx="100" cy="100" r="1" fill="white" opacity="0.5"/>
  </g>
  
  <!-- Beautiful Unicode text symbols floating around -->
  <g opacity="0.7" fill="white" font-family="serif">
    <text x="32" y="38" font-size="10" font-weight="bold">𝒯</text>
    <text x="96" y="42" font-size="9">𝓐</text>
    <text x="25" y="95" font-size="8">𝔸</text>
    <text x="103" y="98" font-size="8">𝕿</text>
  </g>
  
  <!-- Magic wand trails -->
  <path d="M27 27 L33 33 L31 35 L25 29 Z" fill="rgba(255,255,255,0.4)" stroke="none"/>
  <path d="M95 32 L101 38 L99 40 L93 34 Z" fill="rgba(255,255,255,0.3)" stroke="none"/>
  
  <!-- Subtle outer rim -->
  <circle cx="64" cy="64" r="55" fill="none" stroke="rgba(255,255,255,0.2)" stroke-width="1"/>
</svg>